<svg xmlns="http://www.w3.org/2000/svg" viewBox="0 0 100 100">
    <defs>
        <linearGradient id="logo-gradient" x1="0%" y1="0%" x2="100%" y2="100%">
            <stop offset="0%" style="stop-color:#16a34a;stop-opacity:1" />
            <stop offset="100%" style="stop-color:#facc15;stop-opacity:1" />
        </linearGradient>
    </defs>
    <!-- Modern Minimalist Leaf -->
    <path fill="url(#logo-gradient)" d="M50 15C30 15 15 35 15 55C15 75 35 85 50 85C65 85 85 75 85 55C85 35 70 15 50 15ZM50 78C35 78 25 68 25 55C25 42 35 32 50 25C65 32 75 42 75 55C75 68 65 78 50 78Z"/>
    <!-- Heartbeat Line -->
    <path fill="none" stroke="#ffffff" stroke-width="4" stroke-linecap="round" stroke-linejoin="round" d="M25 55H40L45 40L55 70L60 55H75"/>
</svg>
